<?xml version="1.0" encoding="UTF-8"?>
<svg version="1.1" xmlns="http://www.w3.org/2000/svg" width="500" height="500">
<path d="M0 0 C165 0 330 0 500 0 C500 165 500 330 500 500 C335 500 170 500 0 500 C0 335 0 170 0 0 Z " fill="#E3E3E3" transform="translate(0,0)"/>
<path d="M0 0 C34.32 0 68.64 0 104 0 C104 8.58 104 17.16 104 26 C69.68 26 35.36 26 0 26 C0 17.42 0 8.84 0 0 Z " fill="#040404" transform="translate(241,200)"/>
<path d="M0 0 C34.32 0 68.64 0 104 0 C104 8.25 104 16.5 104 25 C69.68 25 35.36 25 0 25 C0 16.75 0 8.5 0 0 Z " fill="#000000" transform="translate(136,261)"/>
<path d="M0 0 C3.96 0 7.92 0 12 0 C14.56785614 6.37031688 17.13123687 12.74240872 19.69042969 19.11621094 C20.56223783 21.28565446 21.43528146 23.4546019 22.30957031 25.62304688 C23.56377707 28.73438972 24.81357506 31.84747138 26.0625 34.9609375 C26.45622803 35.934935 26.84995605 36.9089325 27.25561523 37.91244507 C27.61598877 38.81322784 27.9763623 39.71401062 28.34765625 40.64208984 C28.66742432 41.43706879 28.98719238 42.23204773 29.31665039 43.05111694 C30 45 30 45 30 47 C26.04 47 22.08 47 18 47 C17.34 44.36 16.68 41.72 16 39 C9.4 39 2.8 39 -4 39 C-4.495 41.475 -4.495 41.475 -5 44 C-5.33 44.99 -5.66 45.98 -6 47 C-9.96 47 -13.92 47 -18 47 C-12.18469959 31.26298091 -6.07236051 15.63905367 0 0 Z " fill="#060606" transform="translate(266,235)"/>
<path d="M0 0 C3.96 0 7.92 0 12 0 C14.56785614 6.37031688 17.13123687 12.74240872 19.69042969 19.11621094 C20.56223783 21.28565446 21.43528146 23.4546019 22.30957031 25.62304688 C23.56377707 28.73438972 24.81357506 31.84747138 26.0625 34.9609375 C26.45622803 35.934935 26.84995605 36.9089325 27.25561523 37.91244507 C27.61598877 38.81322784 27.9763623 39.71401062 28.34765625 40.64208984 C28.66742432 41.43706879 28.98719238 42.23204773 29.31665039 43.05111694 C30 45 30 45 30 47 C26.04 47 22.08 47 18 47 C17.34 44.36 16.68 41.72 16 39 C9.4 39 2.8 39 -4 39 C-4.495 41.475 -4.495 41.475 -5 44 C-5.33 44.99 -5.66 45.98 -6 47 C-9.96 47 -13.92 47 -18 47 C-12.18469959 31.26298091 -6.07236051 15.63905367 0 0 Z " fill="#060606" transform="translate(200,201)"/>
<path d="M0 0 C0.66 0 1.32 0 2 0 C2.8394882 2.10171867 3.67139656 4.20646625 4.5 6.3125 C4.9640625 7.48425781 5.428125 8.65601563 5.90625 9.86328125 C7 13 7 13 7 16 C3.04 16 -0.92 16 -5 16 C-3.40615011 10.63886855 -1.8106711 5.29273092 0 0 Z " fill="#D8D8D8" transform="translate(271,249)"/>
<path d="M0 0 C0.66 0 1.32 0 2 0 C2.8394882 2.10171867 3.67139656 4.20646625 4.5 6.3125 C4.9640625 7.48425781 5.428125 8.65601563 5.90625 9.86328125 C7 13 7 13 7 16 C3.04 16 -0.92 16 -5 16 C-3.40615011 10.63886855 -1.8106711 5.29273092 0 0 Z " fill="#D8D8D8" transform="translate(205,215)"/>
<path d="M0 0 C1.45792884 -0.05399736 2.91642712 -0.09279177 4.375 -0.125 C5.18710938 -0.14820313 5.99921875 -0.17140625 6.8359375 -0.1953125 C9 0 9 0 11 2 C10.625 4.625 10.625 4.625 10 7 C8.68 7 7.36 7 6 7 C6 7.99 6 8.98 6 10 C5.34 10 4.68 10 4 10 C4 7.36 4 4.72 4 2 C3.01 2 2.02 2 1 2 C1 3.65 1 5.3 1 7 C0.67 7 0.34 7 0 7 C0 4.69 0 2.38 0 0 Z " fill="#737373" transform="translate(180,271)"/>
<path d="M0 0 C0.66 1.32 1.32 2.64 2 4 C2.66 4 3.32 4 4 4 C4.33 2.68 4.66 1.36 5 0 C5.33 0.66 5.66 1.32 6 2 C5.22265625 3.9453125 5.22265625 3.9453125 4.0625 6.125 C3.68222656 6.84945312 3.30195313 7.57390625 2.91015625 8.3203125 C2.60980469 8.87460938 2.30945313 9.42890625 2 10 C-0.64 10 -3.28 10 -6 10 C-6.33 9.01 -6.66 8.02 -7 7 C-6.34 6.34 -5.68 5.68 -5 5 C-1.535 6.485 -1.535 6.485 2 8 C1.67 7.236875 1.34 6.47375 1 5.6875 C0 3 0 3 0 0 Z " fill="#898989" transform="translate(300,210)"/>
<path d="M0 0 C2.125 0.375 2.125 0.375 4 1 C4 2.65 4 4.3 4 6 C2.35 6.33 0.7 6.66 -1 7 C-1.625 4.625 -1.625 4.625 -2 2 C-1.34 1.34 -0.68 0.68 0 0 Z " fill="#6D6D6D" transform="translate(288,210)"/>
<path d="M0 0 C0.66 0 1.32 0 2 0 C2.66 2.97 3.32 5.94 4 9 C3.67 8.34 3.34 7.68 3 7 C1.68 7 0.36 7 -1 7 C-1 7.66 -1 8.32 -1 9 C-1.66 9 -2.32 9 -3 9 C-2.01 6.03 -1.02 3.06 0 0 Z " fill="#919191" transform="translate(174,269)"/>
<path d="M0 0 C1.98 0.495 1.98 0.495 4 1 C4.33 2.98 4.66 4.96 5 7 C3.02 7 1.04 7 -1 7 C-0.7525 6.1028125 -0.7525 6.1028125 -0.5 5.1875 C0.1114124 2.88655664 0.1114124 2.88655664 0 0 Z " fill="#8C8C8C" transform="translate(308,210)"/>
<path d="M0 0 C0 1.98 0 3.96 0 6 C-0.66 6 -1.32 6 -2 6 C-2 4.35 -2 2.7 -2 1 C-2.66 1 -3.32 1 -4 1 C-4 2.65 -4 4.3 -4 6 C-4.66 6 -5.32 6 -6 6 C-6 4.02 -6 2.04 -6 0 C-3.50907189 -1.24546405 -2.58919267 -0.7767578 0 0 Z " fill="#7E7E7E" transform="translate(205,272)"/>
<path d="M0 0 C1.98 0.495 1.98 0.495 4 1 C4.33 2.98 4.66 4.96 5 7 C3.35 7 1.7 7 0 7 C-1.125 2.25 -1.125 2.25 0 0 Z " fill="#919191" transform="translate(193,271)"/>
<path d="M0 0 C0.66 0.33 1.32 0.66 2 1 C2.625 4.0625 2.625 4.0625 3 7 C1.02 7.66 -0.96 8.32 -3 9 C-2.01 6.03 -1.02 3.06 0 0 Z " fill="#949494" transform="translate(276,208)"/>
<path d="M0 0 C1.98 0.495 1.98 0.495 4 1 C3.67 2.32 3.34 3.64 3 5 C1.68 4.67 0.36 4.34 -1 4 C-0.67 2.68 -0.34 1.36 0 0 Z " fill="#808080" transform="translate(295,210)"/>
<path d="M0 0 C0.66 0 1.32 0 2 0 C3.4606285 2.64738916 4 3.89448334 4 7 C1.69 6.34 -0.62 5.68 -3 5 C-2.01 4.34 -1.02 3.68 0 3 C0 2.01 0 1.02 0 0 Z " fill="#0A0A0A" transform="translate(298,211)"/>
<path d="M0 0 C1.32 0 2.64 0 4 0 C4 0.66 4 1.32 4 2 C3.34 2 2.68 2 2 2 C2 3.65 2 5.3 2 7 C1.34 7 0.68 7 0 7 C0 4.69 0 2.38 0 0 Z " fill="#787878" transform="translate(281,210)"/>
</svg>
